<?xml version="1.0" encoding="UTF-8" standalone="no"?>
<!DOCTYPE svg PUBLIC "-//W3C//DTD SVG 1.1//EN"
 "http://www.w3.org/Graphics/SVG/1.1/DTD/svg11.dtd">
<!-- Generated by graphviz version 13.1.0 (20250701.0955)
 -->
<!-- Pages: 1 -->
<svg width="351pt" height="122pt"
 viewBox="0.00 0.00 351.00 122.00" xmlns="http://www.w3.org/2000/svg" xmlns:xlink="http://www.w3.org/1999/xlink">
<g id="graph0" class="graph" transform="scale(1 1) rotate(0) translate(4 117.75)">
<polygon fill="white" stroke="none" points="-4,4 -4,-117.75 347.22,-117.75 347.22,4 -4,4"/>
<g id="node1" class="node">
<title></title>
<ellipse fill="black" stroke="black" cx="0.36" cy="-62" rx="0.36" ry="0.36"/>
</g>
<!-- 0 -->
<g id="node2" class="node">
<title>0</title>
<ellipse fill="none" stroke="black" cx="59.72" cy="-62" rx="18" ry="18"/>
<ellipse fill="none" stroke="black" cx="59.72" cy="-62" rx="22" ry="22"/>
<text xml:space="preserve" text-anchor="middle" x="59.72" y="-56.58" font-family="Helvetica,Arial,sans-serif" font-size="14.00">0</text>
</g>
<!-- &#45;&gt;0 -->
<g id="edge1" class="edge">
<title>&#45;&gt;0</title>
<path fill="none" stroke="black" d="M0.89,-62C2.4,-62 13.97,-62 26.38,-62"/>
<polygon fill="black" stroke="black" points="36.04,-62 26.04,-66.5 32.26,-62 26.04,-62 26.04,-62 26.04,-62 32.26,-62 26.04,-57.5 36.04,-62"/>
</g>
<!-- 1 -->
<g id="node3" class="node">
<title>1</title>
<ellipse fill="none" stroke="black" cx="226.72" cy="-62" rx="18" ry="18"/>
<ellipse fill="none" stroke="black" cx="226.72" cy="-62" rx="22" ry="22"/>
<text xml:space="preserve" text-anchor="middle" x="226.72" y="-56.58" font-family="Helvetica,Arial,sans-serif" font-size="14.00">1</text>
</g>
<!-- 0&#45;&gt;1 -->
<g id="edge2" class="edge">
<title>0&#45;&gt;1</title>
<path fill="none" stroke="black" d="M81.08,-68.81C93.64,-72.64 110.18,-77.05 125.22,-79 141.09,-81.06 145.35,-81.06 161.22,-79 172.27,-77.57 184.12,-74.81 194.61,-71.93"/>
<polygon fill="black" stroke="black" points="204.19,-69.15 195.85,-76.26 200.56,-70.2 194.59,-71.94 194.59,-71.94 194.59,-71.94 200.56,-70.2 193.34,-67.61 204.19,-69.15"/>
<text xml:space="preserve" text-anchor="middle" x="143.22" y="-82.99" font-family="Helvetica,Arial,sans-serif" font-size="14.00">b</text>
</g>
<!-- 2 -->
<g id="node4" class="node">
<title>2</title>
<ellipse fill="none" stroke="black" cx="143.22" cy="-18" rx="18" ry="18"/>
<text xml:space="preserve" text-anchor="middle" x="143.22" y="-12.57" font-family="Helvetica,Arial,sans-serif" font-size="14.00">2</text>
</g>
<!-- 0&#45;&gt;2 -->
<g id="edge3" class="edge">
<title>0&#45;&gt;2</title>
<path fill="none" stroke="black" d="M79.62,-51.79C90.86,-45.73 105.25,-37.96 117.4,-31.4"/>
<polygon fill="black" stroke="black" points="125.89,-26.82 119.23,-35.53 122.56,-28.61 117.09,-31.57 117.09,-31.57 117.09,-31.57 122.56,-28.61 114.95,-27.61 125.89,-26.82"/>
<text xml:space="preserve" text-anchor="middle" x="103.47" y="-42.45" font-family="Helvetica,Arial,sans-serif" font-size="14.00">a</text>
</g>
<!-- 3 -->
<g id="node5" class="node">
<title>3</title>
<ellipse fill="none" stroke="black" cx="325.22" cy="-62" rx="18" ry="18"/>
<text xml:space="preserve" text-anchor="middle" x="325.22" y="-56.58" font-family="Helvetica,Arial,sans-serif" font-size="14.00">3</text>
</g>
<!-- 1&#45;&gt;3 -->
<g id="edge4" class="edge">
<title>1&#45;&gt;3</title>
<path fill="none" stroke="black" d="M249.14,-62C262.81,-62 280.69,-62 295.57,-62"/>
<polygon fill="black" stroke="black" points="305.51,-62 295.51,-66.5 301.73,-62 295.51,-62 295.51,-62 295.51,-62 301.73,-62 295.51,-57.5 305.51,-62"/>
<text xml:space="preserve" text-anchor="middle" x="277.97" y="-64.45" font-family="Helvetica,Arial,sans-serif" font-size="14.00">a, b</text>
</g>
<!-- 2&#45;&gt;1 -->
<g id="edge5" class="edge">
<title>2&#45;&gt;1</title>
<path fill="none" stroke="black" d="M159.55,-26.28C170.1,-31.97 184.44,-39.71 197.07,-46.53"/>
<polygon fill="black" stroke="black" points="205.66,-51.17 194.72,-50.38 202.33,-49.37 196.86,-46.42 196.86,-46.42 196.86,-46.42 202.33,-49.37 199,-42.46 205.66,-51.17"/>
<text xml:space="preserve" text-anchor="middle" x="182.97" y="-42.45" font-family="Helvetica,Arial,sans-serif" font-size="14.00">b</text>
</g>
<!-- 2&#45;&gt;2 -->
<g id="edge6" class="edge">
<title>2&#45;&gt;2</title>
<path fill="none" stroke="black" d="M136.18,-35.04C134.74,-44.86 137.09,-54 143.22,-54 146.86,-54 149.17,-50.78 150.14,-46.1"/>
<polygon fill="black" stroke="black" points="150.25,-36.26 154.64,-46.3 150.21,-40.04 150.14,-46.26 150.14,-46.26 150.14,-46.26 150.21,-40.04 145.64,-46.21 150.25,-36.26"/>
<text xml:space="preserve" text-anchor="middle" x="143.22" y="-56.45" font-family="Helvetica,Arial,sans-serif" font-size="14.00">a</text>
</g>
<!-- 3&#45;&gt;3 -->
<g id="edge7" class="edge">
<title>3&#45;&gt;3</title>
<path fill="none" stroke="black" d="M316.99,-78.29C315,-88.39 317.74,-98 325.22,-98 329.78,-98 332.57,-94.43 333.62,-89.36"/>
<polygon fill="black" stroke="black" points="333.47,-79.51 338.12,-89.44 333.53,-83.29 333.62,-89.51 333.62,-89.51 333.62,-89.51 333.53,-83.29 329.12,-89.57 333.47,-79.51"/>
<text xml:space="preserve" text-anchor="middle" x="325.22" y="-100.45" font-family="Helvetica,Arial,sans-serif" font-size="14.00">a, b</text>
</g>
</g>
</svg>
