<?xml version="1.0" encoding="UTF-8" standalone="no"?>
<!DOCTYPE svg PUBLIC "-//W3C//DTD SVG 1.1//EN"
 "http://www.w3.org/Graphics/SVG/1.1/DTD/svg11.dtd">
<!-- Generated by graphviz version 13.1.0 (20250701.0955)
 -->
<!-- Pages: 1 -->
<svg width="589pt" height="131pt"
 viewBox="0.00 0.00 589.00 131.00" xmlns="http://www.w3.org/2000/svg" xmlns:xlink="http://www.w3.org/1999/xlink">
<g id="graph0" class="graph" transform="scale(1 1) rotate(0) translate(4 127.09)">
<polygon fill="white" stroke="none" points="-4,4 -4,-127.09 585.22,-127.09 585.22,4 -4,4"/>
<g id="node1" class="node">
<title></title>
<ellipse fill="black" stroke="black" cx="0.36" cy="-64.09" rx="0.36" ry="0.36"/>
</g>
<!-- 0 -->
<g id="node2" class="node">
<title>0</title>
<ellipse fill="none" stroke="black" cx="55.72" cy="-64.09" rx="18" ry="18"/>
<text xml:space="preserve" text-anchor="middle" x="55.72" y="-58.67" font-family="Helvetica,Arial,sans-serif" font-size="14.00">0</text>
</g>
<!-- &#45;&gt;0 -->
<g id="edge1" class="edge">
<title>&#45;&gt;0</title>
<path fill="none" stroke="black" d="M0.87,-64.09C2.35,-64.09 14.17,-64.09 26.36,-64.09"/>
<polygon fill="black" stroke="black" points="36.16,-64.09 26.16,-68.6 32.37,-64.1 26.16,-64.1 26.16,-64.1 26.16,-64.1 32.37,-64.1 26.16,-59.6 36.16,-64.09"/>
</g>
<!-- 1 -->
<g id="node3" class="node">
<title>1</title>
<ellipse fill="none" stroke="black" cx="133.72" cy="-94.09" rx="18" ry="18"/>
<text xml:space="preserve" text-anchor="middle" x="133.72" y="-88.67" font-family="Helvetica,Arial,sans-serif" font-size="14.00">1</text>
</g>
<!-- 0&#45;&gt;1 -->
<g id="edge2" class="edge">
<title>0&#45;&gt;1</title>
<path fill="none" stroke="black" stroke-dasharray="5,2" d="M72.84,-70.46C82.61,-74.32 95.32,-79.33 106.51,-83.75"/>
<polygon fill="black" stroke="black" points="115.49,-87.29 104.54,-87.81 111.97,-85.91 106.19,-83.62 106.19,-83.62 106.19,-83.62 111.97,-85.91 107.84,-79.44 115.49,-87.29"/>
<text xml:space="preserve" text-anchor="middle" x="94.72" y="-82.44" font-family="Helvetica,Arial,sans-serif" font-size="14.00">ε</text>
</g>
<!-- 3 -->
<g id="node5" class="node">
<title>3</title>
<ellipse fill="none" stroke="black" cx="133.72" cy="-38.09" rx="18" ry="18"/>
<text xml:space="preserve" text-anchor="middle" x="133.72" y="-32.67" font-family="Helvetica,Arial,sans-serif" font-size="14.00">3</text>
</g>
<!-- 0&#45;&gt;3 -->
<g id="edge3" class="edge">
<title>0&#45;&gt;3</title>
<path fill="none" stroke="black" stroke-dasharray="5,2" d="M72.64,-57.51C78.59,-55.14 85.43,-52.52 91.72,-50.34 96.14,-48.82 100.87,-47.3 105.49,-45.88"/>
<polygon fill="black" stroke="black" points="114.69,-43.13 106.4,-50.31 111.07,-44.22 105.11,-45.99 105.11,-45.99 105.11,-45.99 111.07,-44.22 103.83,-41.68 114.69,-43.13"/>
<text xml:space="preserve" text-anchor="middle" x="94.72" y="-52.79" font-family="Helvetica,Arial,sans-serif" font-size="14.00">ε</text>
</g>
<!-- 2 -->
<g id="node4" class="node">
<title>2</title>
<ellipse fill="none" stroke="black" cx="265.72" cy="-105.09" rx="18" ry="18"/>
<text xml:space="preserve" text-anchor="middle" x="265.72" y="-99.67" font-family="Helvetica,Arial,sans-serif" font-size="14.00">2</text>
</g>
<!-- 1&#45;&gt;2 -->
<g id="edge4" class="edge">
<title>1&#45;&gt;2</title>
<path fill="none" stroke="black" stroke-dasharray="5,2" d="M151.98,-95.56C173.54,-97.38 210.73,-100.53 236.46,-102.7"/>
<polygon fill="black" stroke="black" points="246.17,-103.53 235.83,-107.17 242.4,-103.21 236.21,-102.68 236.21,-102.68 236.21,-102.68 242.4,-103.21 236.59,-98.2 246.17,-103.53"/>
<text xml:space="preserve" text-anchor="middle" x="172.72" y="-99.97" font-family="Helvetica,Arial,sans-serif" font-size="14.00">ε</text>
</g>
<!-- 8 -->
<g id="node10" class="node">
<title>8</title>
<ellipse fill="none" stroke="black" cx="559.22" cy="-77.09" rx="18" ry="18"/>
<ellipse fill="none" stroke="black" cx="559.22" cy="-77.09" rx="22" ry="22"/>
<text xml:space="preserve" text-anchor="middle" x="559.22" y="-71.67" font-family="Helvetica,Arial,sans-serif" font-size="14.00">8</text>
</g>
<!-- 2&#45;&gt;8 -->
<g id="edge5" class="edge">
<title>2&#45;&gt;8</title>
<path fill="none" stroke="black" stroke-dasharray="5,2" d="M284.15,-103.57C302.46,-102.1 332.09,-100.09 357.72,-100.09 357.72,-100.09 357.72,-100.09 478.22,-100.09 495.31,-100.09 513.69,-95.18 528.52,-89.9"/>
<polygon fill="black" stroke="black" points="537.48,-86.49 529.73,-94.25 533.94,-87.83 528.13,-90.05 528.13,-90.05 528.13,-90.05 533.94,-87.83 526.53,-85.84 537.48,-86.49"/>
<text xml:space="preserve" text-anchor="middle" x="397.72" y="-102.54" font-family="Helvetica,Arial,sans-serif" font-size="14.00">ε</text>
</g>
<!-- 4 -->
<g id="node6" class="node">
<title>4</title>
<ellipse fill="none" stroke="black" cx="211.72" cy="-38.09" rx="18" ry="18"/>
<text xml:space="preserve" text-anchor="middle" x="211.72" y="-32.67" font-family="Helvetica,Arial,sans-serif" font-size="14.00">4</text>
</g>
<!-- 3&#45;&gt;4 -->
<g id="edge6" class="edge">
<title>3&#45;&gt;4</title>
<path fill="none" stroke="black" stroke-dasharray="5,2" d="M151.97,-38.09C160.94,-38.09 172.14,-38.09 182.35,-38.09"/>
<polygon fill="black" stroke="black" points="192.06,-38.09 182.06,-42.6 188.28,-38.1 182.06,-38.1 182.06,-38.1 182.06,-38.1 188.28,-38.1 182.06,-33.6 192.06,-38.09"/>
<text xml:space="preserve" text-anchor="middle" x="172.72" y="-40.54" font-family="Helvetica,Arial,sans-serif" font-size="14.00">ε</text>
</g>
<!-- 6 -->
<g id="node8" class="node">
<title>6</title>
<ellipse fill="none" stroke="black" cx="397.72" cy="-38.09" rx="18" ry="18"/>
<text xml:space="preserve" text-anchor="middle" x="397.72" y="-32.67" font-family="Helvetica,Arial,sans-serif" font-size="14.00">6</text>
</g>
<!-- 3&#45;&gt;6 -->
<g id="edge7" class="edge">
<title>3&#45;&gt;6</title>
<path fill="none" stroke="black" stroke-dasharray="5,2" d="M149.81,-29.82C161.47,-23.76 178.2,-15.81 193.72,-11.09 232.17,0.59 243.66,0.88 283.72,-2.34 307.95,-4.3 314.46,-4.03 337.72,-11.09 349.24,-14.59 361.42,-19.88 371.71,-24.85"/>
<polygon fill="black" stroke="black" points="380.55,-29.27 369.59,-28.82 377.16,-27.58 371.61,-24.79 371.61,-24.79 371.61,-24.79 377.16,-27.58 373.62,-20.77 380.55,-29.27"/>
<text xml:space="preserve" text-anchor="middle" x="265.72" y="-4.79" font-family="Helvetica,Arial,sans-serif" font-size="14.00">ε</text>
</g>
<!-- 5 -->
<g id="node7" class="node">
<title>5</title>
<ellipse fill="none" stroke="black" cx="319.72" cy="-38.09" rx="18" ry="18"/>
<text xml:space="preserve" text-anchor="middle" x="319.72" y="-32.67" font-family="Helvetica,Arial,sans-serif" font-size="14.00">5</text>
</g>
<!-- 4&#45;&gt;5 -->
<g id="edge8" class="edge">
<title>4&#45;&gt;5</title>
<path fill="none" stroke="black" d="M229.74,-41.61C235.43,-42.62 241.82,-43.59 247.72,-44.09 263.66,-45.45 267.78,-45.45 283.72,-44.09 286.02,-43.9 288.4,-43.63 290.79,-43.32"/>
<polygon fill="black" stroke="black" points="300.5,-41.8 291.32,-47.79 296.77,-42.38 290.62,-43.34 290.62,-43.34 290.62,-43.34 296.77,-42.38 289.93,-38.9 300.5,-41.8"/>
<text xml:space="preserve" text-anchor="middle" x="265.72" y="-47.56" font-family="Helvetica,Arial,sans-serif" font-size="14.00">a</text>
</g>
<!-- 5&#45;&gt;4 -->
<g id="edge9" class="edge">
<title>5&#45;&gt;4</title>
<path fill="none" stroke="black" stroke-dasharray="5,2" d="M303.06,-30.5C297.15,-28.02 290.26,-25.58 283.72,-24.34 268,-21.37 263.44,-21.37 247.72,-24.34 244.76,-24.91 241.72,-25.71 238.74,-26.66"/>
<polygon fill="black" stroke="black" points="229.52,-30.08 237.33,-22.38 233.06,-28.76 238.89,-26.6 238.89,-26.6 238.89,-26.6 233.06,-28.76 240.46,-30.82 229.52,-30.08"/>
<text xml:space="preserve" text-anchor="middle" x="265.72" y="-26.79" font-family="Helvetica,Arial,sans-serif" font-size="14.00">ε</text>
</g>
<!-- 5&#45;&gt;6 -->
<g id="edge10" class="edge">
<title>5&#45;&gt;6</title>
<path fill="none" stroke="black" stroke-dasharray="5,2" d="M337.97,-38.09C346.94,-38.09 358.14,-38.09 368.35,-38.09"/>
<polygon fill="black" stroke="black" points="378.06,-38.09 368.06,-42.6 374.28,-38.1 368.06,-38.1 368.06,-38.1 368.06,-38.1 374.28,-38.1 368.06,-33.6 378.06,-38.09"/>
<text xml:space="preserve" text-anchor="middle" x="358.72" y="-40.54" font-family="Helvetica,Arial,sans-serif" font-size="14.00">ε</text>
</g>
<!-- 7 -->
<g id="node9" class="node">
<title>7</title>
<ellipse fill="none" stroke="black" cx="477.22" cy="-52.09" rx="18" ry="18"/>
<text xml:space="preserve" text-anchor="middle" x="477.22" y="-46.67" font-family="Helvetica,Arial,sans-serif" font-size="14.00">7</text>
</g>
<!-- 6&#45;&gt;7 -->
<g id="edge11" class="edge">
<title>6&#45;&gt;7</title>
<path fill="none" stroke="black" d="M415.92,-41.2C425.35,-42.91 437.28,-45.06 448.03,-47"/>
<polygon fill="black" stroke="black" points="457.87,-48.78 447.23,-51.43 454.15,-48.11 448.03,-47 448.03,-47 448.03,-47 454.15,-48.11 448.83,-42.57 457.87,-48.78"/>
<text xml:space="preserve" text-anchor="middle" x="437.47" y="-47.96" font-family="Helvetica,Arial,sans-serif" font-size="14.00">b</text>
</g>
<!-- 7&#45;&gt;8 -->
<g id="edge12" class="edge">
<title>7&#45;&gt;8</title>
<path fill="none" stroke="black" stroke-dasharray="5,2" d="M494.8,-57.28C504.13,-60.19 516.1,-63.93 527.11,-67.37"/>
<polygon fill="black" stroke="black" points="536.52,-70.31 525.63,-71.63 532.91,-69.19 526.98,-67.33 526.98,-67.33 526.98,-67.33 532.91,-69.19 528.32,-63.04 536.52,-70.31"/>
<text xml:space="preserve" text-anchor="middle" x="516.22" y="-67.04" font-family="Helvetica,Arial,sans-serif" font-size="14.00">ε</text>
</g>
</g>
</svg>
